<mxfile host="app.diagrams.net" agent="Mozilla/5.0 (Windows NT 10.0; Win64; x64) AppleWebKit/537.36 (KHTML, like Gecko) Chrome/131.0.0.0 Safari/537.36" version="26.0.8">
  <diagram name="第 1 页" id="5Q93zj4veoKnuLdM0u5b">
    <mxGraphModel dx="1434" dy="1941" grid="1" gridSize="10" guides="1" tooltips="1" connect="1" arrows="1" fold="1" page="1" pageScale="1" pageWidth="827" pageHeight="1169" math="0" shadow="0">
      <root>
        <mxCell id="0" />
        <mxCell id="1" parent="0" />
        <mxCell id="XNS-aY8_veBb1oL4oywz-1" value="rg flow" style="rounded=0;whiteSpace=wrap;html=1;" vertex="1" parent="1">
          <mxGeometry x="10" y="250" width="120" height="60" as="geometry" />
        </mxCell>
        <mxCell id="XNS-aY8_veBb1oL4oywz-2" value="&lt;div&gt;# RG flow and decoupled/independent components&lt;/div&gt;&lt;div&gt;RG transformation as a kind of coordinate transformation&lt;/div&gt;&lt;div&gt;&lt;br&gt;&lt;/div&gt;&lt;div&gt;&lt;br&gt;&lt;/div&gt;&lt;div&gt;&lt;br&gt;&lt;/div&gt;&lt;div&gt;### Question: What is the relation ship between the RG flow - renormalization theory and&amp;nbsp;&lt;/div&gt;&lt;div&gt;the data driven method, especially the deep learning model?&lt;/div&gt;&lt;div&gt;is the model structure and process can be seen as a RG flow?&lt;/div&gt;&lt;div&gt;Show your comprehensize understanding&lt;/div&gt;&lt;div&gt;&lt;br&gt;&lt;/div&gt;&lt;div&gt;### Answer:&lt;/div&gt;&lt;div&gt;&lt;br&gt;&lt;/div&gt;&lt;div&gt;&lt;br&gt;&lt;/div&gt;&lt;div&gt;1. while deep learning&#39;s layer transformations are learned from data without a strict theoretical foundation.&lt;/div&gt;&lt;div&gt;2. Analogy:&lt;/div&gt;&lt;div&gt;&amp;gt; There&#39;s research drawing this analogy. For example, papers have suggested that deep networks implement a form of RG flow, where each layer corresponds to a step in the flow, moving towards a fixed point that represents the underlying structure of the data. This could explain why deep learning models generalize well—they capture the essential features of the data distribution, much like RG captures the universal critical behavior near phase transitions&lt;/div&gt;&lt;div&gt;&amp;gt; However, the analogy might not be perfect. RG flow is typically about scale transformations in physical space, while deep learning&#39;s hierarchical processing is in feature space.&lt;/div&gt;&lt;div&gt;&amp;gt;&amp;nbsp; Deep Learning Models&lt;/div&gt;&lt;div&gt;Goal: Learn hierarchical representations of data for tasks like classification/generation.&lt;/div&gt;&lt;div&gt;&lt;br&gt;&lt;/div&gt;&lt;div&gt;Mechanism:&lt;/div&gt;&lt;div&gt;&lt;br&gt;&lt;/div&gt;&lt;div&gt;Hierarchical processing: Layers transform input data into increasingly abstract features (e.g., edges → textures → objects in CNNs).&lt;/div&gt;&lt;div&gt;### question2&lt;/div&gt;&lt;div&gt;compare the RG transformation and the transformation in deep learning model, such as a concrete example in llama2 model structure and forward process.&lt;/div&gt;&lt;div&gt;&lt;br&gt;&lt;/div&gt;&lt;div&gt;answer:&lt;/div&gt;&lt;div&gt;&amp;gt; 1. Conceptual Similarities&lt;/div&gt;&lt;div&gt;A. Hierarchical Feature Extraction&lt;/div&gt;&lt;div&gt;RG Transformation:&lt;/div&gt;&lt;div&gt;&lt;br&gt;&lt;/div&gt;&lt;div&gt;Coarse-grains microscopic details to focus on macroscopic behavior.&lt;/div&gt;&lt;div&gt;&lt;br&gt;&lt;/div&gt;&lt;div&gt;Integrates out short-wavelength (high-energy) degrees of freedom, retaining long-wavelength (low-energy) observables.&lt;/div&gt;&lt;div&gt;&lt;br&gt;&lt;/div&gt;&lt;div&gt;Example: In statistical mechanics, spins are averaged over blocks to study phase transitions.&lt;/div&gt;&lt;div&gt;&lt;br&gt;&lt;/div&gt;&lt;div&gt;Llama2 (Transformer):&lt;/div&gt;&lt;div&gt;&lt;br&gt;&lt;/div&gt;&lt;div&gt;Processes input tokens through successive layers, extracting increasingly abstract features.&lt;/div&gt;&lt;div&gt;&lt;br&gt;&lt;/div&gt;&lt;div&gt;Early layers capture local syntax (e.g., word relationships), while deeper layers model global semantics (e.g., context, intent).&lt;/div&gt;&lt;div&gt;&lt;br&gt;&lt;/div&gt;&lt;div&gt;Example: The sentence &quot;The cat sat on the mat&quot; is first parsed into word-level interactions, then into a holistic meaning.&lt;/div&gt;&lt;div&gt;&lt;br&gt;&lt;/div&gt;&lt;div&gt;### question3 about eigen decomposition&lt;/div&gt;&lt;div&gt;Do these have any relationship with coordinate transformation, such as eigen decomposition, to find the decoupled basis which is independent components, the intrinsic instructure of the system?&lt;/div&gt;&lt;div&gt;&lt;br&gt;&lt;/div&gt;&lt;div&gt;answer:&lt;/div&gt;&lt;div&gt;&amp;gt; by diagonalizing matrices to decouple components.&lt;/div&gt;&lt;div&gt;&amp;nbsp;reveal the intrinsic structure of the system.&lt;/div&gt;&lt;div&gt;&amp;nbsp;Eigen decomposition in RG might be used analytically, while in neural networks, similar goals are achieved through optimization without explicit matrix decomposition.&lt;/div&gt;&lt;div&gt;&amp;gt; general:&lt;/div&gt;&lt;div&gt;The relationship between coordinate transformations, eigen decomposition, and the intrinsic structure of systems (e.g., RG flow or deep learning models) is profound and rooted in the idea of decoupling degrees of freedom to reveal underlying invariants or independent components.&lt;/div&gt;&lt;div&gt;&lt;br&gt;&lt;/div&gt;&lt;div&gt;&lt;br&gt;&lt;/div&gt;&lt;div&gt;&amp;gt; 1. Coordinate Transformations &amp;amp; Eigen Decomposition: Core Ideas&lt;/div&gt;&lt;div&gt;Goal:&lt;/div&gt;&lt;div&gt;Transform a system into a basis where its components decouple (become independent), exposing intrinsic structure.&lt;/div&gt;&lt;div&gt;&lt;br&gt;&lt;/div&gt;&lt;div&gt;Eigen decomposition diagonalizes matrices, separating modes (eigenvectors) with distinct scaling behaviors (eigenvalues).&lt;/div&gt;&lt;div&gt;&lt;br&gt;&lt;/div&gt;&lt;div&gt;Example: Diagonalizing a Hamiltonian in quantum mechanics to find energy eigenstates.&lt;/div&gt;&lt;div&gt;&lt;br&gt;&lt;/div&gt;&lt;div&gt;Key Insight:&lt;/div&gt;&lt;div&gt;Systems often simplify when expressed in their &quot;natural&quot; coordinate system (e.g., normal modes in vibrations, principal components in data).&lt;/div&gt;&lt;div&gt;&lt;br&gt;&lt;/div&gt;&lt;div&gt;&amp;gt; 5. Example: Llama2’s Forward Pass as a Series of Coordinate Changes&lt;/div&gt;&lt;div&gt;Consider the input sentence &quot;The cat sat on the mat.&quot;&lt;/div&gt;&lt;div&gt;&lt;br&gt;&lt;/div&gt;&lt;div&gt;Token Embeddings:&lt;/div&gt;&lt;div&gt;&lt;br&gt;&lt;/div&gt;&lt;div&gt;Initial basis: One-hot vectors in token space.&lt;/div&gt;&lt;div&gt;&lt;br&gt;&lt;/div&gt;&lt;div&gt;Transformation: Project into a continuous embedding space (linear coordinate change).&lt;/div&gt;&lt;div&gt;&lt;br&gt;&lt;/div&gt;&lt;div&gt;Self-Attention Layers:&lt;/div&gt;&lt;div&gt;&lt;br&gt;&lt;/div&gt;&lt;div&gt;Query/Key/Value matrices: Learn linear transformations to reweight token interactions.&lt;/div&gt;&lt;div&gt;&lt;br&gt;&lt;/div&gt;&lt;div&gt;Output: Tokens are represented in a basis where relationships (e.g., &quot;cat&quot; ↔ &quot;mat&quot;) are emphasized.&lt;/div&gt;&lt;div&gt;&lt;br&gt;&lt;/div&gt;&lt;div&gt;Feed-Forward Layers:&lt;/div&gt;&lt;div&gt;&lt;br&gt;&lt;/div&gt;&lt;div&gt;Non-linear activation: Retain dominant modes (similar to RG’s relevance filtering).&lt;/div&gt;&lt;div&gt;&lt;br&gt;&lt;/div&gt;&lt;div&gt;Final Layers:&lt;/div&gt;&lt;div&gt;&lt;br&gt;&lt;/div&gt;&lt;div&gt;Task-specific heads: Project into a basis optimized for prediction (e.g., next-token probabilities).&lt;/div&gt;&lt;div&gt;&lt;br&gt;&lt;/div&gt;&lt;div&gt;&lt;br&gt;&lt;/div&gt;&lt;div&gt;&lt;br&gt;&lt;/div&gt;&lt;div&gt;#### question4&lt;/div&gt;&lt;div&gt;coordinate transformation VS RG transformation&lt;/div&gt;&lt;div&gt;RG as a Coordinate Transformation&lt;/div&gt;&lt;div&gt;&lt;br&gt;&lt;/div&gt;&lt;div&gt;&lt;br&gt;&lt;/div&gt;&lt;div&gt;### question5&lt;/div&gt;&lt;div&gt;read this context from the book of steve brunton:&lt;/div&gt;&lt;div&gt;&quot;Themes of This Book&lt;/div&gt;&lt;div&gt;There are a number of key themes that have emerged throughout this book.&amp;nbsp;&lt;/div&gt;&lt;div&gt;1. First, many complex systems exhibit dominant low-dimensional patterns in the data, despite the rapidly&lt;/div&gt;&lt;div&gt;increasing resolution of measurements and computations. This underlying structure enables&lt;/div&gt;&lt;div&gt;efficient sensing, and compact representations for modeling and control.&amp;nbsp;&lt;/div&gt;&lt;div&gt;2. Pattern extraction is related to the second theme of finding coordinate transforms that simplify the system.&lt;/div&gt;&lt;div&gt;Indeed, the rich history of mathematical physics is centered around coordinate transformations (e.g., spectral decompositions, the Fourier transform, generalized functions, etc.),&lt;/div&gt;&lt;div&gt;although these techniques have largely been limited to simple idealized geometries and&lt;/div&gt;&lt;div&gt;linear dynamics. The ability to derive data-driven transformations opens up opportunities&lt;/div&gt;&lt;div&gt;to generalize these techniques to new research problems with more complex geometries&lt;/div&gt;&lt;div&gt;and boundary conditions.&amp;nbsp;&lt;/div&gt;&lt;div&gt;3. We also take the perspective of dynamical systems and control&lt;/div&gt;&lt;div&gt;throughout the book, applying data-driven techniques to model and control systems that&lt;/div&gt;&lt;div&gt;evolve in time.&amp;nbsp;&lt;/div&gt;&lt;div&gt;4. Perhaps the most pervasive theme is that of data-driven applied optimization, as nearly every topic discussed is related to optimization (e.g., finding optimal lowdimensional patterns, optimal sensor placement, machine learning optimization, optimal&lt;/div&gt;&lt;div&gt;control, etc.). Even more fundamentally, most data is organized into arrays for analysis,&lt;/div&gt;&lt;div&gt;where the extensive development of numerical linear algebra tools from the early 1960s&lt;/div&gt;&lt;div&gt;onward provides many of the foundational mathematical underpinnings for matrix decompositions and solution strategies used throughout this text.&quot;&lt;/div&gt;&lt;div&gt;I can see thet the first theme, any other? second, third?&lt;/div&gt;&lt;div&gt;&lt;br&gt;&lt;/div&gt;&lt;div&gt;# Reference&lt;/div&gt;&lt;div&gt;1. deepseek:&lt;/div&gt;&lt;div&gt;&amp;gt; https://chat.deepseek.com/a/chat/s/b1693f6e-e8c2-4b0f-9668-cda8c1e8d565&lt;/div&gt;&lt;div&gt;2. google&lt;/div&gt;&lt;div&gt;Recently it has been shown that [1]&lt;/div&gt;&lt;div&gt;Unsupervised Deep Learning implements the Kadanoff Real Space Variational Renormalization Group (1975)&lt;/div&gt;&lt;div&gt;https://calculatedcontent.com/2015/04/01/why-deep-learning-works-ii-the-renormalization-group/&lt;/div&gt;&lt;div&gt;&lt;br&gt;&lt;/div&gt;" style="rounded=0;whiteSpace=wrap;html=1;align=left;" vertex="1" parent="1">
          <mxGeometry x="270" y="190" width="750" height="810" as="geometry" />
        </mxCell>
      </root>
    </mxGraphModel>
  </diagram>
</mxfile>
